<?xml version="1.0" encoding="utf-8"?>
<!-- Generator: Adobe Illustrator 27.5.0, SVG Export Plug-In . SVG Version: 6.00 Build 0)  -->
<svg version="1.1" id="Capa_1" xmlns="http://www.w3.org/2000/svg" xmlns:xlink="http://www.w3.org/1999/xlink" x="0px" y="0px"
	 viewBox="0 0 2245 2006" style="enable-background:new 0 0 2245 2006;" xml:space="preserve">
<g>
	<path style="fill:#D1DDE5;" d="M2024.001,651.76h-55.364l-26.035-103.54v-43.421c0,0-118.913,27.605-235.139,28.026
		c-11.406,0.041-22.785-0.184-34.024-0.718c-0.282-0.013-0.562-0.028-0.843-0.042c-5.328-0.26-10.622-0.594-15.873-1.002
		c-0.341-0.026-0.683-0.052-1.023-0.079c-5.397-0.43-10.747-0.937-16.035-1.535c-0.069-0.007-0.139-0.014-0.207-0.022
		c-5.355-0.609-10.643-1.31-15.857-2.105c-0.265-0.041-0.526-0.084-0.79-0.126c-2.238-0.346-4.404-0.777-6.612-1.159
		c-0.362-172.544-1.512-311.497-4.259-315.161c-7.348-9.797-102.873,85.727-271.879,124.917
		c-169.005,39.19-217.992,227.79-217.992,227.79c-55.255-75.93-323.241-88.177-455.852-46.538
		c-132.612,41.639-364.682-12.247-364.682-12.247v41.639L275.051,651.76h-54.916c-9.116,0-16.575,7.459-16.575,16.575v1063.889
		c0,9.117,7.459,16.575,16.575,16.575h754.455c18.847,26.787,76.093,46.269,143.805,46.269c67.711,0,124.957-19.481,143.804-46.269
		h761.803c9.116,0,16.575-7.459,16.575-16.575V668.334C2040.576,659.218,2033.117,651.76,2024.001,651.76z"/>
	<path style="fill:#879DA8;" d="M1968.637,651.76l-26.035-103.54v975.51c-0.135,0.046-0.31,0.089-0.448,0.135
		c-36.748,12.145-202.131,16.818-441.591-34.426c-240.358-51.436-378.495,53.886-378.495,53.886s-138.137-105.322-378.496-53.886
		c-240.358,51.436-406.123,46.538-442.038,34.291V546.437L275.051,651.76l-2.909,11.569v987.768l746.425,6.55
		c-0.014,0.307-0.105,0.604-0.105,0.912c0,25.026,46.606,54.863,104.098,54.863c57.491,0,104.098-29.837,104.098-54.863
		c0-0.312-0.093-0.614-0.107-0.925l742.502-6.517l0,0l2.494-0.022V663.329L1968.637,651.76z"/>
	<path style="fill:#A3BBC4;" d="M272.141,1651.096l79.456-76.002c-37.786-0.746-50.064-4.827-50.064-4.827V546.437L275.051,651.76
		l-2.909,11.569V1651.096z"/>
	<path style="fill:#4B5F67;" d="M1122.563,1574.952c-0.167,0.065-0.328,0.124-0.495,0.189l-45.611-0.474
		c-29.383,9.574-49.499,28.846-49.499,51.111c0,31.788,40.937,57.558,91.436,57.558c50.499,0,91.436-25.77,91.436-57.558
		c0-22.2-19.997-41.43-49.242-51.032l-38.029,0.396L1122.563,1574.952z"/>
	<path style="fill:#A3BBC4;" d="M1942.602,1523.73c-0.135,0.046-0.31,0.089-0.448,0.135v46.403c0,0-12.8,4.261-52.535,4.872
		l79.432,75.979l2.494-0.022V663.329l-2.909-11.569l-26.035-103.54V1523.73z"/>
	<path style="fill:#70848C;" d="M1122.563,1574.952l-0.004,0.189l38.029-0.396l602.456-6.272l-0.009-0.004
		c-48.683-4.799-109.689-12.662-185.835-25.144C1412.152,1516.268,1297.694,1506.609,1122.563,1574.952z"/>
	<path style="fill:#70848C;" d="M1122.068,1575.141c-175.414-68.557-290.376-58.899-455.58-31.816
		c-76.146,12.483-137.152,20.346-185.836,25.144l-0.008,0.004l595.813,6.194L1122.068,1575.141z"/>
	<path style="fill:#A0B1BC;" d="M480.652,1568.469c48.683-4.799,109.69-12.662,185.836-25.144
		c165.204-27.083,280.166-36.74,455.58,31.816c0.167-0.065,0.328-0.124,0.495-0.189c175.131-68.343,289.589-58.684,454.637-31.627
		c76.146,12.483,137.152,20.346,185.835,25.144c58.358,5.752,98.982,7.095,126.584,6.67c39.735-0.611,52.535-4.872,52.535-4.872
		v-46.403c-36.748,12.145-202.131,16.818-441.591-34.426c-240.358-51.436-378.495,53.886-378.495,53.886
		s-138.137-105.322-378.496-53.886c-240.358,51.436-406.123,46.538-442.038,34.291v46.538c0,0,12.278,4.08,50.064,4.827
		C379.23,1575.639,420.519,1574.396,480.652,1568.469z"/>
	<path style="fill:#962524;" d="M2024.001,651.76h-55.364l2.909,11.569v987.768l-744.996,6.538c0.014,0.31,0.107,0.612,0.107,0.925
		c0,25.026-46.606,54.863-104.098,54.863c-57.491,0-104.098-29.837-104.098-54.863c0-0.308,0.092-0.606,0.105-0.912l-746.425-6.55
		V663.329l2.909-11.569h-54.916c-9.116,0-16.575,7.459-16.575,16.575v1063.889c0,9.117,7.459,16.575,16.575,16.575h754.455
		c18.847,26.787,76.093,46.269,143.805,46.269c67.711,0,124.957-19.481,143.804-46.269h761.803c9.116,0,16.575-7.459,16.575-16.575
		V668.334C2040.576,659.218,2033.117,651.76,2024.001,651.76z"/>
	<path style="fill:#C24444;" d="M2024.001,651.76h-21.662c8.906,0,16.193,7.287,16.193,16.193v1040.431
		c0,8.906-7.287,16.194-16.193,16.194H1235.16c-27.573,14.774-69.629,24.221-116.766,24.221c-47.138,0-89.194-9.447-116.768-24.221
		h-759.83c-8.906,0-16.193-7.287-16.193-16.194V667.953c0-8.906,7.287-16.193,16.193-16.193h-21.662
		c-9.116,0-16.575,7.459-16.575,16.575v1063.889c0,9.117,7.459,16.575,16.575,16.575h754.455
		c18.847,26.787,76.093,46.269,143.805,46.269c67.711,0,124.957-19.481,143.804-46.269h761.803c9.116,0,16.575-7.459,16.575-16.575
		V668.334C2040.576,659.218,2033.117,651.76,2024.001,651.76z"/>
	<path style="fill:#90A5B2;" d="M1615.205,1197.966c0,0-40.006,48.987-199.214,85.727
		c-117.08,27.019-249.867,143.854-287.804,241.179c19.349-25.45,41.135-49.009,65.414-69.884
		c45.427-39.06,98.654-65.957,155.406-84.456c54.716-17.836,111.232-27.067,167.178-39.862
		c46.516-10.639,92.782-25.315,135.112-47.597c19.602-10.318,39.233-22.703,56.167-37.763V532.824l0,0
		c-11.406,0.041-22.785-0.184-34.024-0.718c-0.282-0.013-0.562-0.028-0.843-0.042c-5.328-0.26-10.622-0.594-15.873-1.002
		c-0.341-0.026-0.683-0.052-1.023-0.079c-5.397-0.43-10.747-0.937-16.035-1.535c-0.069-0.007-0.139-0.014-0.207-0.022
		c-5.355-0.609-10.643-1.31-15.857-2.105c-0.265-0.041-0.526-0.084-0.79-0.126c-2.238-0.346-4.404-0.777-6.612-1.159
		C1616.804,814.917,1615.205,1197.966,1615.205,1197.966z"/>
	<path style="fill:#E7EDF3;" d="M1122.068,1543.325c1.623-6.05,3.687-12.214,6.119-18.453
		c37.938-97.325,170.724-214.161,287.804-241.179c159.208-36.741,199.214-85.727,199.214-85.727s1.6-383.048,0.993-671.929
		c-0.362-172.544-1.512-311.497-4.259-315.161c-7.348-9.797-102.873,85.727-271.879,124.917
		c-169.005,39.19-217.992,227.79-217.992,227.79V1543.325z"/>
</g>
</svg>
