<?xml version="1.0" encoding="UTF-8"?>
<svg version="1.1" xmlns="http://www.w3.org/2000/svg" width="500" height="500">
<path d="M0 0 C165 0 330 0 500 0 C500 165 500 330 500 500 C335 500 170 500 0 500 C0 335 0 170 0 0 Z " fill="#FF3131" transform="translate(0,0)"/>
<path d="M0 0 C1.55775146 0.00362549 1.55775146 0.00362549 3.14697266 0.00732422 C16.65924992 0.32504028 29.50092206 4.4975375 40.4375 12.5625 C41.14003906 13.07296875 41.84257812 13.5834375 42.56640625 14.109375 C51.05908206 20.87773143 56.21858902 30.01599034 58.4375 40.5625 C58.88047635 45.68033719 58.90929282 50.78835514 58.90625 55.921875 C58.91337186 57.39862346 58.92107372 58.87536922 58.92932129 60.35211182 C58.94269668 63.43501488 58.9443672 66.51766217 58.93847656 69.60058594 C58.93259669 73.51171537 58.96313193 77.42159649 59.00359344 81.3324852 C59.02970696 84.38013074 59.03232658 87.42748541 59.02870178 90.47522736 C59.03037205 91.91505307 59.03980767 93.35489539 59.05784607 94.79460907 C59.20628057 108.10726097 56.74935438 120.02636832 47.7265625 130.31640625 C40.34771009 137.55674778 32.17466785 142.21423937 22.4375 145.5625 C21.71675293 145.82216553 20.99600586 146.08183105 20.25341797 146.34936523 C13.66520666 148.55877036 7.6105992 149.0704232 0.6875 149 C-0.36800049 148.99170166 -1.42350098 148.98340332 -2.51098633 148.97485352 C-18.10790311 148.63841891 -33.26286622 143.4972789 -44.7890625 132.5546875 C-55.36814675 120.67069417 -58.19107564 107.28046086 -58.09375 91.75 C-58.09645586 90.36482472 -58.10034727 88.97965132 -58.10534668 87.59448242 C-58.11119061 84.71351761 -58.10284693 81.83305419 -58.08398438 78.95214844 C-58.06119687 75.29780642 -58.07434793 71.64464029 -58.09827423 67.99034119 C-58.11287257 65.13659131 -58.10806297 62.28311072 -58.09776306 59.42935181 C-58.09387593 57.43946551 -58.10581622 55.44956782 -58.11828613 53.4597168 C-57.97430413 39.31820051 -54.12907494 27.44037832 -44.89453125 16.60546875 C-40.74965633 12.55209217 -35.86525248 9.93707666 -30.75 7.3125 C-30.11070557 6.98290283 -29.47141113 6.65330566 -28.81274414 6.3137207 C-19.53249884 1.78877635 -10.28713803 -0.0253253 0 0 Z " fill="#FFFDFD" transform="translate(249.5625,171.4375)"/>
<path d="M0 0 C6.56860232 6.22117211 11.94116239 13.55740638 12.46875 22.80859375 C12.47519531 23.85789063 12.48164063 24.9071875 12.48828125 25.98828125 C12.50246094 27.04273438 12.51664062 28.0971875 12.53125 29.18359375 C12.30078125 31.86328125 12.30078125 31.86328125 10.30078125 33.86328125 C5.67317009 34.35221468 1.01375442 34.23368819 -3.63671875 34.23828125 C-5.58868164 34.27501953 -5.58868164 34.27501953 -7.58007812 34.3125 C-8.82466797 34.31636719 -10.06925781 34.32023437 -11.3515625 34.32421875 C-12.49616943 34.33243652 -13.64077637 34.3406543 -14.82006836 34.34912109 C-17.69921875 33.86328125 -17.69921875 33.86328125 -19.51000977 32.02197266 C-20.43658205 30.34002805 -21.2741252 28.60893991 -22.07421875 26.86328125 C-25.04744101 21.37425554 -29.31101821 19.15999375 -35.10546875 17.40234375 C-42.99562331 15.76252247 -50.52649184 16.14883339 -57.69921875 19.86328125 C-60.58319671 22.53096086 -61.55414686 23.99284989 -62.19921875 27.86328125 C-61.57167198 31.62856185 -60.27110649 33.06945811 -57.69921875 35.86328125 C-49.66707115 41.11666388 -40.39337018 43.7665905 -31.26171875 46.42578125 C3.15008225 56.58753337 3.15008225 56.58753337 11.30078125 68.86328125 C16.57380391 78.8347023 17.90426323 89.50395238 15.76953125 100.6328125 C15.0726406 102.79544598 14.26138911 104.80542734 13.30078125 106.86328125 C13.02234375 107.53488281 12.74390625 108.20648438 12.45703125 108.8984375 C7.87616809 119.14614431 0.33725822 125.14446034 -9.69921875 129.86328125 C-13.98064063 131.42965511 -18.2865718 132.72334745 -22.69921875 133.86328125 C-23.29750488 134.03835205 -23.89579102 134.21342285 -24.51220703 134.39379883 C-37.90644694 137.26911959 -55.09681278 136.24503159 -67.69921875 130.86328125 C-68.71371094 130.46238281 -69.72820312 130.06148437 -70.7734375 129.6484375 C-84.73374592 123.48159191 -93.20098538 113.83128511 -98.69921875 99.86328125 C-99.65969166 96.81704763 -99.89145491 93.99223355 -99.94921875 90.80078125 C-99.975 89.94355469 -100.00078125 89.08632813 -100.02734375 88.203125 C-99.69921875 85.86328125 -99.69921875 85.86328125 -98.57104492 84.24194336 C-95.85835693 82.24395861 -93.7641196 82.47483551 -90.421875 82.46484375 C-88.56852539 82.45904297 -88.56852539 82.45904297 -86.67773438 82.453125 C-85.38544922 82.46472656 -84.09316406 82.47632813 -82.76171875 82.48828125 C-80.8290918 82.47087891 -80.8290918 82.47087891 -78.85742188 82.453125 C-77.00213867 82.45892578 -77.00213867 82.45892578 -75.109375 82.46484375 C-73.97636963 82.46822754 -72.84336426 82.47161133 -71.67602539 82.47509766 C-68.40526755 82.90161328 -67.03331955 83.57513004 -64.69921875 85.86328125 C-63.8984375 88.1328125 -63.8984375 88.1328125 -63.38671875 90.67578125 C-62.13047322 95.32728499 -60.50401191 97.6803078 -56.80859375 100.70703125 C-50.83699862 103.98035006 -44.7639023 104.20181104 -38.13671875 104.17578125 C-37.31236328 104.19189453 -36.48800781 104.20800781 -35.63867188 104.22460938 C-30.57014314 104.22866096 -27.09233069 103.66074975 -22.69921875 100.86328125 C-19.25739422 97.07727427 -19.28624857 93.15421257 -19.10546875 88.265625 C-19.99724286 84.65746001 -21.55286689 83.79856929 -24.69921875 81.86328125 C-27.76840598 80.64873069 -30.89588555 79.7464349 -34.07421875 78.86328125 C-34.96326904 78.60546875 -35.85231934 78.34765625 -36.76831055 78.08203125 C-41.99332471 76.57910583 -47.2425963 75.20147108 -52.51171875 73.86328125 C-67.37367833 69.91834073 -84.45517839 64.09985357 -92.625 50.06640625 C-97.90235613 39.24302858 -99.65879808 28.35354568 -96.13671875 16.61328125 C-91.79226863 5.14876011 -83.47982581 -2.08174629 -72.74609375 -7.67578125 C-50.05690808 -17.8324586 -19.77684061 -15.65547296 0 0 Z " fill="#FFFCFC" transform="translate(424.69921875,185.13671875)"/>
<path d="M0 0 C6.38027296 5.93574575 10.27566711 12.8498584 10.80859375 21.66015625 C10.93029265 27.66635503 10.93029265 27.66635503 10.625 30.625 C7.37041131 33.87958869 3.43025164 32.92103956 -1.00195312 32.94726562 C-2.25943359 32.94404297 -3.51691406 32.94082031 -4.8125 32.9375 C-6.06611328 32.95361328 -7.31972656 32.96972656 -8.61132812 32.98632812 C-9.81080078 32.98697266 -11.01027344 32.98761719 -12.24609375 32.98828125 C-13.34880615 32.99126221 -14.45151855 32.99424316 -15.58764648 32.99731445 C-18.375 32.625 -18.375 32.625 -20.17797852 31.22338867 C-22.01134492 28.7752855 -23.53944067 26.19286964 -25.09375 23.5625 C-28.14552505 18.94762065 -31.17882798 17.6441964 -36.421875 16.203125 C-45.20969222 14.48275867 -52.81548461 14.6328672 -60.375 19.625 C-62.83946493 23.32169739 -63.15868587 26.33579452 -62.375 30.625 C-55.62837447 40.29516325 -40.99421191 42.80435053 -30.328125 45.73828125 C1.68689105 54.65310678 1.68689105 54.65310678 10.3046875 68.28125 C15.59752805 78.44828834 16.51509479 90.942121 13.5 102.0625 C9.40051552 113.24118686 2.48650289 121.64400424 -8 127.375 C-25.69378423 135.34395626 -47.82887418 136.82057208 -66.3671875 130.625 C-80.20391601 125.27338999 -91.81505473 117.24950171 -98.375 103.625 C-100.92175598 97.25811004 -101.01932765 90.39991577 -100.375 83.625 C-97.02359874 80.27359874 -92.64200733 81.29507556 -88.0859375 81.25390625 C-87.07998535 81.25414795 -87.07998535 81.25414795 -86.05371094 81.25439453 C-84.01411892 81.25003021 -81.97670756 81.21374522 -79.9375 81.17578125 C-78.00777344 81.16998047 -78.00777344 81.16998047 -76.0390625 81.1640625 C-74.85779785 81.15584473 -73.6765332 81.14762695 -72.45947266 81.13916016 C-68.7752166 81.71947277 -67.63142592 82.71996171 -65.375 85.625 C-64.6875 87.58984375 -64.6875 87.58984375 -64.375 89.5625 C-63.53145487 93.47480415 -62.30394763 95.77741202 -59.375 98.625 C-52.86369699 102.50407413 -46.81941891 102.82679155 -39.4375 102.875 C-38.65181641 102.895625 -37.86613281 102.91625 -37.05664062 102.9375 C-32.07242215 102.97086715 -28.68836942 102.39182093 -24.375 99.625 C-21.56089784 96.36656592 -20.47482208 94.33623233 -19.875 90.0625 C-20.47104084 85.96471925 -21.55706988 84.60504454 -24.375 81.625 C-32.32602584 77.14554882 -41.675228 75.55829565 -50.48510742 73.5703125 C-58.52962531 71.70357274 -65.8719806 69.08436494 -73.375 65.625 C-74.22191406 65.23699219 -75.06882812 64.84898437 -75.94140625 64.44921875 C-87.19016093 58.75637073 -94.41308447 50.51074658 -98.375 38.625 C-99.59041098 26.52633 -99.57101545 15.80641274 -92.375 5.625 C-91.99214844 5.02945313 -91.60929687 4.43390625 -91.21484375 3.8203125 C-84.25331027 -5.81105641 -71.15842027 -11.39903166 -59.875 -13.6875 C-38.50143235 -16.53358864 -17.18951418 -14.00627081 0 0 Z " fill="#FFFCFC" transform="translate(156.375,186.375)"/>
<path d="M0 0 C4.17551115 3.9155265 7.79245749 7.51554517 8.14717102 13.47087097 C8.16193733 14.94358208 8.16193733 14.94358208 8.17700195 16.44604492 C8.19625481 18.11874702 8.19625481 18.11874702 8.21589661 19.82524109 C8.22328354 21.03146622 8.23067047 22.23769135 8.23828125 23.48046875 C8.246353 24.72242508 8.25442474 25.96438141 8.26274109 27.24397278 C8.27658308 29.87598398 8.28759843 32.50786991 8.29516602 35.13989258 C8.30401206 37.82957714 8.32485271 40.51874272 8.35668945 43.20825195 C8.39939169 47.09081595 8.41554094 50.97269896 8.42578125 54.85546875 C8.44328934 56.05157272 8.46079742 57.2476767 8.47883606 58.48002625 C8.4568 66.99819506 7.41301714 72.58698286 1.1875 78.8125 C-6.55385399 84.12519391 -12.65322318 84.8444489 -22 84 C-27.66200299 82.81428834 -31.96580002 80.12588635 -36 76 C-40.36952573 69.0965484 -40.58752387 63.3019234 -40.53125 55.25 C-40.5350769 54.03731445 -40.53890381 52.82462891 -40.54284668 51.57519531 C-40.54555954 49.02017381 -40.53824249 46.46512424 -40.52148438 43.91015625 C-40.50006806 40.01238743 -40.52130979 36.11646189 -40.546875 32.21875 C-40.54423162 29.72916262 -40.53910642 27.23957639 -40.53125 24.75 C-40.53934692 23.59145508 -40.54744385 22.43291016 -40.55578613 21.23925781 C-40.46633349 13.47259632 -39.40043726 8.10588928 -34.32421875 1.9765625 C-24.98333751 -5.73690984 -10.20847716 -7.16976703 0 0 Z " fill="#FF3232" transform="translate(266,206)"/>
</svg>
